<svg xmlns="http://www.w3.org/2000/svg" viewBox="0 0 1600 1200" width="1600" height="1200"><rect x="0" y="0" width="1600" height="1200" fill="#ffffff"/><text x="24" y="40" font-family="Arial, Helvetica, sans-serif" font-size="30" font-weight="500" fill="#000000">Undithered-Color Scanner</text><text x="24" y="66" font-family="Arial, Helvetica, sans-serif" font-size="16" fill="#000000">Rows = lightness (70% top to 20% bottom), Columns = hue at 0-324deg, fixed 85% saturation. Note which chips render as flat solid color (not a dot pattern) on-device.</text><text x="143.5" y="112" font-family="Arial, Helvetica, sans-serif" font-size="16" fill="#000000" text-anchor="middle">0°</text><text x="294.5" y="112" font-family="Arial, Helvetica, sans-serif" font-size="16" fill="#000000" text-anchor="middle">36°</text><text x="445.5" y="112" font-family="Arial, Helvetica, sans-serif" font-size="16" fill="#000000" text-anchor="middle">72°</text><text x="596.5" y="112" font-family="Arial, Helvetica, sans-serif" font-size="16" fill="#000000" text-anchor="middle">108°</text><text x="747.5" y="112" font-family="Arial, Helvetica, sans-serif" font-size="16" fill="#000000" text-anchor="middle">144°</text><text x="898.5" y="112" font-family="Arial, Helvetica, sans-serif" font-size="16" fill="#000000" text-anchor="middle">180°</text><text x="1049.5" y="112" font-family="Arial, Helvetica, sans-serif" font-size="16" fill="#000000" text-anchor="middle">216°</text><text x="1200.5" y="112" font-family="Arial, Helvetica, sans-serif" font-size="16" fill="#000000" text-anchor="middle">252°</text><text x="1351.5" y="112" font-family="Arial, Helvetica, sans-serif" font-size="16" fill="#000000" text-anchor="middle">288°</text><text x="1502.5" y="112" font-family="Arial, Helvetica, sans-serif" font-size="16" fill="#000000" text-anchor="middle">324°</text><text x="60" y="220.5" font-family="Arial, Helvetica, sans-serif" font-size="16" fill="#000000" text-anchor="end">70%</text><rect x="70.0" y="130.0" width="147.0" height="171.0" fill="#f47171"/><text x="143.5" y="220.5" font-family="Arial, Helvetica, sans-serif" font-size="14" fill="#000000" text-anchor="middle">#f47171</text><rect x="221.0" y="130.0" width="147.0" height="171.0" fill="#f4c071"/><text x="294.5" y="220.5" font-family="Arial, Helvetica, sans-serif" font-size="14" fill="#000000" text-anchor="middle">#f4c071</text><rect x="372.0" y="130.0" width="147.0" height="171.0" fill="#daf471"/><text x="445.5" y="220.5" font-family="Arial, Helvetica, sans-serif" font-size="14" fill="#000000" text-anchor="middle">#daf471</text><rect x="523.0" y="130.0" width="147.0" height="171.0" fill="#8bf471"/><text x="596.5" y="220.5" font-family="Arial, Helvetica, sans-serif" font-size="14" fill="#000000" text-anchor="middle">#8bf471</text><rect x="674.0" y="130.0" width="147.0" height="171.0" fill="#71f4a5"/><text x="747.5" y="220.5" font-family="Arial, Helvetica, sans-serif" font-size="14" fill="#000000" text-anchor="middle">#71f4a5</text><rect x="825.0" y="130.0" width="147.0" height="171.0" fill="#71f4f4"/><text x="898.5" y="220.5" font-family="Arial, Helvetica, sans-serif" font-size="14" fill="#000000" text-anchor="middle">#71f4f4</text><rect x="976.0" y="130.0" width="147.0" height="171.0" fill="#71a5f4"/><text x="1049.5" y="220.5" font-family="Arial, Helvetica, sans-serif" font-size="14" fill="#000000" text-anchor="middle">#71a5f4</text><rect x="1127.0" y="130.0" width="147.0" height="171.0" fill="#8b71f4"/><text x="1200.5" y="220.5" font-family="Arial, Helvetica, sans-serif" font-size="14" fill="#000000" text-anchor="middle">#8b71f4</text><rect x="1278.0" y="130.0" width="147.0" height="171.0" fill="#da71f4"/><text x="1351.5" y="220.5" font-family="Arial, Helvetica, sans-serif" font-size="14" fill="#000000" text-anchor="middle">#da71f4</text><rect x="1429.0" y="130.0" width="147.0" height="171.0" fill="#f471c0"/><text x="1502.5" y="220.5" font-family="Arial, Helvetica, sans-serif" font-size="14" fill="#000000" text-anchor="middle">#f471c0</text><text x="60" y="395.5" font-family="Arial, Helvetica, sans-serif" font-size="16" fill="#000000" text-anchor="end">60%</text><rect x="70.0" y="305.0" width="147.0" height="171.0" fill="#f04242"/><text x="143.5" y="395.5" font-family="Arial, Helvetica, sans-serif" font-size="14" fill="#000000" text-anchor="middle">#f04242</text><rect x="221.0" y="305.0" width="147.0" height="171.0" fill="#f0aa42"/><text x="294.5" y="395.5" font-family="Arial, Helvetica, sans-serif" font-size="14" fill="#000000" text-anchor="middle">#f0aa42</text><rect x="372.0" y="305.0" width="147.0" height="171.0" fill="#cdf042"/><text x="445.5" y="395.5" font-family="Arial, Helvetica, sans-serif" font-size="14" fill="#000000" text-anchor="middle">#cdf042</text><rect x="523.0" y="305.0" width="147.0" height="171.0" fill="#65f042"/><text x="596.5" y="395.5" font-family="Arial, Helvetica, sans-serif" font-size="14" fill="#000000" text-anchor="middle">#65f042</text><rect x="674.0" y="305.0" width="147.0" height="171.0" fill="#42f088"/><text x="747.5" y="395.5" font-family="Arial, Helvetica, sans-serif" font-size="14" fill="#000000" text-anchor="middle">#42f088</text><rect x="825.0" y="305.0" width="147.0" height="171.0" fill="#42f0f0"/><text x="898.5" y="395.5" font-family="Arial, Helvetica, sans-serif" font-size="14" fill="#000000" text-anchor="middle">#42f0f0</text><rect x="976.0" y="305.0" width="147.0" height="171.0" fill="#4288f0"/><text x="1049.5" y="395.5" font-family="Arial, Helvetica, sans-serif" font-size="14" fill="#000000" text-anchor="middle">#4288f0</text><rect x="1127.0" y="305.0" width="147.0" height="171.0" fill="#6542f0"/><text x="1200.5" y="395.5" font-family="Arial, Helvetica, sans-serif" font-size="14" fill="#000000" text-anchor="middle">#6542f0</text><rect x="1278.0" y="305.0" width="147.0" height="171.0" fill="#cd42f0"/><text x="1351.5" y="395.5" font-family="Arial, Helvetica, sans-serif" font-size="14" fill="#000000" text-anchor="middle">#cd42f0</text><rect x="1429.0" y="305.0" width="147.0" height="171.0" fill="#f042aa"/><text x="1502.5" y="395.5" font-family="Arial, Helvetica, sans-serif" font-size="14" fill="#000000" text-anchor="middle">#f042aa</text><text x="60" y="570.5" font-family="Arial, Helvetica, sans-serif" font-size="16" fill="#000000" text-anchor="end">50%</text><rect x="70.0" y="480.0" width="147.0" height="171.0" fill="#ec1313"/><text x="143.5" y="570.5" font-family="Arial, Helvetica, sans-serif" font-size="14" fill="#000000" text-anchor="middle">#ec1313</text><rect x="221.0" y="480.0" width="147.0" height="171.0" fill="#ec9513"/><text x="294.5" y="570.5" font-family="Arial, Helvetica, sans-serif" font-size="14" fill="#000000" text-anchor="middle">#ec9513</text><rect x="372.0" y="480.0" width="147.0" height="171.0" fill="#c1ec13"/><text x="445.5" y="570.5" font-family="Arial, Helvetica, sans-serif" font-size="14" fill="#000000" text-anchor="middle">#c1ec13</text><rect x="523.0" y="480.0" width="147.0" height="171.0" fill="#3eec13"/><text x="596.5" y="570.5" font-family="Arial, Helvetica, sans-serif" font-size="14" fill="#000000" text-anchor="middle">#3eec13</text><rect x="674.0" y="480.0" width="147.0" height="171.0" fill="#13ec6a"/><text x="747.5" y="570.5" font-family="Arial, Helvetica, sans-serif" font-size="14" fill="#000000" text-anchor="middle">#13ec6a</text><rect x="825.0" y="480.0" width="147.0" height="171.0" fill="#13ecec"/><text x="898.5" y="570.5" font-family="Arial, Helvetica, sans-serif" font-size="14" fill="#000000" text-anchor="middle">#13ecec</text><rect x="976.0" y="480.0" width="147.0" height="171.0" fill="#136aec"/><text x="1049.5" y="570.5" font-family="Arial, Helvetica, sans-serif" font-size="14" fill="#000000" text-anchor="middle">#136aec</text><rect x="1127.0" y="480.0" width="147.0" height="171.0" fill="#3e13ec"/><text x="1200.5" y="570.5" font-family="Arial, Helvetica, sans-serif" font-size="14" fill="#000000" text-anchor="middle">#3e13ec</text><rect x="1278.0" y="480.0" width="147.0" height="171.0" fill="#c113ec"/><text x="1351.5" y="570.5" font-family="Arial, Helvetica, sans-serif" font-size="14" fill="#000000" text-anchor="middle">#c113ec</text><rect x="1429.0" y="480.0" width="147.0" height="171.0" fill="#ec1395"/><text x="1502.5" y="570.5" font-family="Arial, Helvetica, sans-serif" font-size="14" fill="#000000" text-anchor="middle">#ec1395</text><text x="60" y="745.5" font-family="Arial, Helvetica, sans-serif" font-size="16" fill="#000000" text-anchor="end">40%</text><rect x="70.0" y="655.0" width="147.0" height="171.0" fill="#bd0f0f"/><text x="143.5" y="745.5" font-family="Arial, Helvetica, sans-serif" font-size="14" fill="#ffffff" text-anchor="middle">#bd0f0f</text><rect x="221.0" y="655.0" width="147.0" height="171.0" fill="#bd770f"/><text x="294.5" y="745.5" font-family="Arial, Helvetica, sans-serif" font-size="14" fill="#ffffff" text-anchor="middle">#bd770f</text><rect x="372.0" y="655.0" width="147.0" height="171.0" fill="#9abd0f"/><text x="445.5" y="745.5" font-family="Arial, Helvetica, sans-serif" font-size="14" fill="#ffffff" text-anchor="middle">#9abd0f</text><rect x="523.0" y="655.0" width="147.0" height="171.0" fill="#32bd0f"/><text x="596.5" y="745.5" font-family="Arial, Helvetica, sans-serif" font-size="14" fill="#ffffff" text-anchor="middle">#32bd0f</text><rect x="674.0" y="655.0" width="147.0" height="171.0" fill="#0fbd55"/><text x="747.5" y="745.5" font-family="Arial, Helvetica, sans-serif" font-size="14" fill="#ffffff" text-anchor="middle">#0fbd55</text><rect x="825.0" y="655.0" width="147.0" height="171.0" fill="#0fbdbd"/><text x="898.5" y="745.5" font-family="Arial, Helvetica, sans-serif" font-size="14" fill="#ffffff" text-anchor="middle">#0fbdbd</text><rect x="976.0" y="655.0" width="147.0" height="171.0" fill="#0f55bd"/><text x="1049.5" y="745.5" font-family="Arial, Helvetica, sans-serif" font-size="14" fill="#ffffff" text-anchor="middle">#0f55bd</text><rect x="1127.0" y="655.0" width="147.0" height="171.0" fill="#320fbd"/><text x="1200.5" y="745.5" font-family="Arial, Helvetica, sans-serif" font-size="14" fill="#ffffff" text-anchor="middle">#320fbd</text><rect x="1278.0" y="655.0" width="147.0" height="171.0" fill="#9a0fbd"/><text x="1351.5" y="745.5" font-family="Arial, Helvetica, sans-serif" font-size="14" fill="#ffffff" text-anchor="middle">#9a0fbd</text><rect x="1429.0" y="655.0" width="147.0" height="171.0" fill="#bd0f77"/><text x="1502.5" y="745.5" font-family="Arial, Helvetica, sans-serif" font-size="14" fill="#ffffff" text-anchor="middle">#bd0f77</text><text x="60" y="920.5" font-family="Arial, Helvetica, sans-serif" font-size="16" fill="#000000" text-anchor="end">30%</text><rect x="70.0" y="830.0" width="147.0" height="171.0" fill="#8e0b0b"/><text x="143.5" y="920.5" font-family="Arial, Helvetica, sans-serif" font-size="14" fill="#ffffff" text-anchor="middle">#8e0b0b</text><rect x="221.0" y="830.0" width="147.0" height="171.0" fill="#8e5a0b"/><text x="294.5" y="920.5" font-family="Arial, Helvetica, sans-serif" font-size="14" fill="#ffffff" text-anchor="middle">#8e5a0b</text><rect x="372.0" y="830.0" width="147.0" height="171.0" fill="#748e0b"/><text x="445.5" y="920.5" font-family="Arial, Helvetica, sans-serif" font-size="14" fill="#ffffff" text-anchor="middle">#748e0b</text><rect x="523.0" y="830.0" width="147.0" height="171.0" fill="#258e0b"/><text x="596.5" y="920.5" font-family="Arial, Helvetica, sans-serif" font-size="14" fill="#ffffff" text-anchor="middle">#258e0b</text><rect x="674.0" y="830.0" width="147.0" height="171.0" fill="#0b8e3f"/><text x="747.5" y="920.5" font-family="Arial, Helvetica, sans-serif" font-size="14" fill="#ffffff" text-anchor="middle">#0b8e3f</text><rect x="825.0" y="830.0" width="147.0" height="171.0" fill="#0b8e8e"/><text x="898.5" y="920.5" font-family="Arial, Helvetica, sans-serif" font-size="14" fill="#ffffff" text-anchor="middle">#0b8e8e</text><rect x="976.0" y="830.0" width="147.0" height="171.0" fill="#0b3f8e"/><text x="1049.5" y="920.5" font-family="Arial, Helvetica, sans-serif" font-size="14" fill="#ffffff" text-anchor="middle">#0b3f8e</text><rect x="1127.0" y="830.0" width="147.0" height="171.0" fill="#250b8e"/><text x="1200.5" y="920.5" font-family="Arial, Helvetica, sans-serif" font-size="14" fill="#ffffff" text-anchor="middle">#250b8e</text><rect x="1278.0" y="830.0" width="147.0" height="171.0" fill="#740b8e"/><text x="1351.5" y="920.5" font-family="Arial, Helvetica, sans-serif" font-size="14" fill="#ffffff" text-anchor="middle">#740b8e</text><rect x="1429.0" y="830.0" width="147.0" height="171.0" fill="#8e0b5a"/><text x="1502.5" y="920.5" font-family="Arial, Helvetica, sans-serif" font-size="14" fill="#ffffff" text-anchor="middle">#8e0b5a</text><text x="60" y="1095.5" font-family="Arial, Helvetica, sans-serif" font-size="16" fill="#000000" text-anchor="end">20%</text><rect x="70.0" y="1005.0" width="147.0" height="171.0" fill="#5e0808"/><text x="143.5" y="1095.5" font-family="Arial, Helvetica, sans-serif" font-size="14" fill="#ffffff" text-anchor="middle">#5e0808</text><rect x="221.0" y="1005.0" width="147.0" height="171.0" fill="#5e3c08"/><text x="294.5" y="1095.5" font-family="Arial, Helvetica, sans-serif" font-size="14" fill="#ffffff" text-anchor="middle">#5e3c08</text><rect x="372.0" y="1005.0" width="147.0" height="171.0" fill="#4d5e08"/><text x="445.5" y="1095.5" font-family="Arial, Helvetica, sans-serif" font-size="14" fill="#ffffff" text-anchor="middle">#4d5e08</text><rect x="523.0" y="1005.0" width="147.0" height="171.0" fill="#195e08"/><text x="596.5" y="1095.5" font-family="Arial, Helvetica, sans-serif" font-size="14" fill="#ffffff" text-anchor="middle">#195e08</text><rect x="674.0" y="1005.0" width="147.0" height="171.0" fill="#085e2a"/><text x="747.5" y="1095.5" font-family="Arial, Helvetica, sans-serif" font-size="14" fill="#ffffff" text-anchor="middle">#085e2a</text><rect x="825.0" y="1005.0" width="147.0" height="171.0" fill="#085e5e"/><text x="898.5" y="1095.5" font-family="Arial, Helvetica, sans-serif" font-size="14" fill="#ffffff" text-anchor="middle">#085e5e</text><rect x="976.0" y="1005.0" width="147.0" height="171.0" fill="#082a5e"/><text x="1049.5" y="1095.5" font-family="Arial, Helvetica, sans-serif" font-size="14" fill="#ffffff" text-anchor="middle">#082a5e</text><rect x="1127.0" y="1005.0" width="147.0" height="171.0" fill="#19085e"/><text x="1200.5" y="1095.5" font-family="Arial, Helvetica, sans-serif" font-size="14" fill="#ffffff" text-anchor="middle">#19085e</text><rect x="1278.0" y="1005.0" width="147.0" height="171.0" fill="#4d085e"/><text x="1351.5" y="1095.5" font-family="Arial, Helvetica, sans-serif" font-size="14" fill="#ffffff" text-anchor="middle">#4d085e</text><rect x="1429.0" y="1005.0" width="147.0" height="171.0" fill="#5e083c"/><text x="1502.5" y="1095.5" font-family="Arial, Helvetica, sans-serif" font-size="14" fill="#ffffff" text-anchor="middle">#5e083c</text></svg>