<svg xmlns="http://www.w3.org/2000/svg" viewBox="0 0 1600 1200" width="1600" height="1200"><rect x="0" y="0" width="1600" height="1200" fill="#ffffff"/><text x="48" y="88" font-family="Arial, Helvetica, sans-serif" font-size="40" font-weight="500" fill="#202124">This Week</text><text x="48" y="118" font-family="Arial, Helvetica, sans-serif" font-size="20" fill="#5f6368">Sun Aug 09 2026 - Sat Aug 15 2026</text><line x1="48" y1="130" x2="1552" y2="130" stroke="#0e7490" stroke-width="3"/><rect x="48" y="170" width="210.85714285714286" height="982" rx="6" fill="none" stroke="#e8eaed" stroke-width="1"/><text x="153.42857142857144" y="196" font-family="Arial, Helvetica, sans-serif" font-size="16" fill="#5f6368" text-anchor="middle">Sun</text><text x="153.42857142857144" y="218" font-family="Arial, Helvetica, sans-serif" font-size="22" font-weight="700" fill="#202124" text-anchor="middle">9</text><rect x="52" y="236" width="202.85714285714286" height="100" rx="6" fill="#000000"/><rect x="52" y="236" width="4" height="100" fill="#0e7490"/><text x="62" y="264" font-family="Arial, Helvetica, sans-serif" font-size="24" font-weight="700" fill="#ffffff">Cont.</text><text x="62" y="292" font-family="Arial, Helvetica, sans-serif" font-size="24" fill="#ffffff">D] Wellness</text><text x="62" y="320" font-family="Arial, Helvetica, sans-serif" font-size="24" fill="#ffffff">playground…</text><rect x="52" y="346" width="202.85714285714286" height="100" rx="6" fill="#000000"/><rect x="52" y="346" width="4" height="100" fill="#0e7490"/><text x="62" y="374" font-family="Arial, Helvetica, sans-serif" font-size="24" font-weight="700" fill="#ffffff">4:00 PM</text><text x="62" y="402" font-family="Arial, Helvetica, sans-serif" font-size="24" fill="#ffffff">D] Concert @</text><text x="62" y="430" font-family="Arial, Helvetica, sans-serif" font-size="24" fill="#ffffff">Commons Beach</text><rect x="262.8571428571429" y="170" width="210.85714285714286" height="982" rx="6" fill="none" stroke="#e8eaed" stroke-width="1"/><text x="368.28571428571433" y="196" font-family="Arial, Helvetica, sans-serif" font-size="16" fill="#5f6368" text-anchor="middle">Mon</text><text x="368.28571428571433" y="218" font-family="Arial, Helvetica, sans-serif" font-size="22" font-weight="700" fill="#202124" text-anchor="middle">10</text><rect x="266.8571428571429" y="236" width="202.85714285714286" height="100" rx="6" fill="#000000"/><rect x="266.8571428571429" y="236" width="4" height="100" fill="#0e7490"/><text x="276.8571428571429" y="264" font-family="Arial, Helvetica, sans-serif" font-size="24" font-weight="700" fill="#ffffff">10:30 AM</text><text x="276.8571428571429" y="292" font-family="Arial, Helvetica, sans-serif" font-size="24" fill="#ffffff">D] Pay</text><text x="276.8571428571429" y="320" font-family="Arial, Helvetica, sans-serif" font-size="24" fill="#ffffff">Allstate</text><rect x="477.7142857142857" y="170" width="210.85714285714286" height="982" rx="6" fill="none" stroke="#e8eaed" stroke-width="1"/><text x="583.1428571428571" y="196" font-family="Arial, Helvetica, sans-serif" font-size="16" fill="#5f6368" text-anchor="middle">Tue</text><text x="583.1428571428571" y="218" font-family="Arial, Helvetica, sans-serif" font-size="22" font-weight="700" fill="#202124" text-anchor="middle">11</text><rect x="481.7142857142857" y="236" width="202.85714285714286" height="100" rx="6" fill="#000000"/><rect x="481.7142857142857" y="236" width="4" height="100" fill="#0e7490"/><text x="491.7142857142857" y="264" font-family="Arial, Helvetica, sans-serif" font-size="24" font-weight="700" fill="#ffffff">8:00 AM</text><text x="491.7142857142857" y="292" font-family="Arial, Helvetica, sans-serif" font-size="24" fill="#ffffff">D] Dusty in</text><text x="491.7142857142857" y="320" font-family="Arial, Helvetica, sans-serif" font-size="24" fill="#ffffff">Office</text><rect x="481.7142857142857" y="346" width="202.85714285714286" height="100" rx="6" fill="#000000"/><rect x="481.7142857142857" y="346" width="4" height="100" fill="#0e7490"/><text x="491.7142857142857" y="374" font-family="Arial, Helvetica, sans-serif" font-size="24" font-weight="700" fill="#ffffff">8:55 AM</text><text x="491.7142857142857" y="402" font-family="Arial, Helvetica, sans-serif" font-size="24" fill="#ffffff">D]</text><text x="491.7142857142857" y="430" font-family="Arial, Helvetica, sans-serif" font-size="24" fill="#ffffff">Truck-Therapy…</text><rect x="481.7142857142857" y="456" width="202.85714285714286" height="100" rx="6" fill="#000000"/><rect x="481.7142857142857" y="456" width="4" height="100" fill="#0e7490"/><text x="491.7142857142857" y="484" font-family="Arial, Helvetica, sans-serif" font-size="24" font-weight="700" fill="#ffffff">9:30 AM</text><text x="491.7142857142857" y="512" font-family="Arial, Helvetica, sans-serif" font-size="24" fill="#ffffff">D] Therapy @</text><text x="491.7142857142857" y="540" font-family="Arial, Helvetica, sans-serif" font-size="24" fill="#ffffff">Tahoe City</text><rect x="692.5714285714286" y="170" width="210.85714285714286" height="982" rx="6" fill="none" stroke="#e8eaed" stroke-width="1"/><text x="798" y="196" font-family="Arial, Helvetica, sans-serif" font-size="16" fill="#5f6368" text-anchor="middle">Wed</text><text x="798" y="218" font-family="Arial, Helvetica, sans-serif" font-size="22" font-weight="700" fill="#202124" text-anchor="middle">12</text><rect x="696.5714285714286" y="236" width="202.85714285714286" height="100" rx="6" fill="#000000"/><rect x="696.5714285714286" y="236" width="4" height="100" fill="#0e7490"/><text x="706.5714285714286" y="264" font-family="Arial, Helvetica, sans-serif" font-size="24" font-weight="700" fill="#ffffff">10:30 AM</text><text x="706.5714285714286" y="292" font-family="Arial, Helvetica, sans-serif" font-size="24" fill="#ffffff">D] Check</text><text x="706.5714285714286" y="320" font-family="Arial, Helvetica, sans-serif" font-size="24" fill="#ffffff">Breakfast Clu…</text><rect x="696.5714285714286" y="346" width="202.85714285714286" height="100" rx="6" fill="#000000"/><rect x="696.5714285714286" y="346" width="4" height="100" fill="#0e7490"/><text x="706.5714285714286" y="374" font-family="Arial, Helvetica, sans-serif" font-size="24" font-weight="700" fill="#ffffff">1:15 PM</text><text x="706.5714285714286" y="402" font-family="Arial, Helvetica, sans-serif" font-size="24" fill="#ffffff">D] Truck Crown</text><text x="706.5714285714286" y="430" font-family="Arial, Helvetica, sans-serif" font-size="24" fill="#ffffff">@ Truckee</text><rect x="696.5714285714286" y="456" width="202.85714285714286" height="100" rx="6" fill="#000000"/><rect x="696.5714285714286" y="456" width="4" height="100" fill="#0e7490"/><text x="706.5714285714286" y="484" font-family="Arial, Helvetica, sans-serif" font-size="24" font-weight="700" fill="#ffffff">2:00 PM</text><text x="706.5714285714286" y="512" font-family="Arial, Helvetica, sans-serif" font-size="24" fill="#ffffff">D] Crown @</text><text x="706.5714285714286" y="540" font-family="Arial, Helvetica, sans-serif" font-size="24" fill="#ffffff">Truckee</text><rect x="696.5714285714286" y="566" width="202.85714285714286" height="100" rx="6" fill="#000000"/><rect x="696.5714285714286" y="566" width="4" height="100" fill="#0e7490"/><text x="706.5714285714286" y="594" font-family="Arial, Helvetica, sans-serif" font-size="24" font-weight="700" fill="#ffffff">6:00 PM</text><text x="706.5714285714286" y="622" font-family="Arial, Helvetica, sans-serif" font-size="24" fill="#ffffff">D] Beatles @</text><text x="706.5714285714286" y="650" font-family="Arial, Helvetica, sans-serif" font-size="24" fill="#ffffff">Truckee</text><rect x="696.5714285714286" y="676" width="202.85714285714286" height="100" rx="6" fill="#000000"/><rect x="696.5714285714286" y="676" width="4" height="100" fill="#0e7490"/><text x="706.5714285714286" y="704" font-family="Arial, Helvetica, sans-serif" font-size="24" font-weight="700" fill="#ffffff">7:30 PM</text><text x="706.5714285714286" y="732" font-family="Arial, Helvetica, sans-serif" font-size="24" fill="#ffffff">D] TBD</text><text x="706.5714285714286" y="760" font-family="Arial, Helvetica, sans-serif" font-size="24" fill="#ffffff">Perseids…</text><rect x="907.4285714285714" y="170" width="210.85714285714286" height="982" rx="6" fill="none" stroke="#e8eaed" stroke-width="1"/><text x="1012.8571428571429" y="196" font-family="Arial, Helvetica, sans-serif" font-size="16" fill="#5f6368" text-anchor="middle">Thu</text><text x="1012.8571428571429" y="218" font-family="Arial, Helvetica, sans-serif" font-size="22" font-weight="700" fill="#202124" text-anchor="middle">13</text><rect x="911.4285714285714" y="236" width="202.85714285714286" height="100" rx="6" fill="#000000"/><rect x="911.4285714285714" y="236" width="4" height="100" fill="#0e7490"/><text x="921.4285714285714" y="264" font-family="Arial, Helvetica, sans-serif" font-size="24" font-weight="700" fill="#ffffff">8:00 AM</text><text x="921.4285714285714" y="292" font-family="Arial, Helvetica, sans-serif" font-size="24" fill="#ffffff">D] Dusty in</text><text x="921.4285714285714" y="320" font-family="Arial, Helvetica, sans-serif" font-size="24" fill="#ffffff">Office</text><rect x="911.4285714285714" y="346" width="202.85714285714286" height="100" rx="6" fill="#000000"/><rect x="911.4285714285714" y="346" width="4" height="100" fill="#0e7490"/><text x="921.4285714285714" y="374" font-family="Arial, Helvetica, sans-serif" font-size="24" font-weight="700" fill="#ffffff">7:00 PM</text><text x="921.4285714285714" y="402" font-family="Arial, Helvetica, sans-serif" font-size="24" fill="#ffffff">D] Concert @</text><text x="921.4285714285714" y="430" font-family="Arial, Helvetica, sans-serif" font-size="24" fill="#ffffff">Alibi, Incline</text><rect x="1122.2857142857142" y="170" width="210.85714285714286" height="982" rx="6" fill="none" stroke="#e8eaed" stroke-width="1"/><text x="1227.7142857142856" y="196" font-family="Arial, Helvetica, sans-serif" font-size="16" fill="#5f6368" text-anchor="middle">Fri</text><text x="1227.7142857142856" y="218" font-family="Arial, Helvetica, sans-serif" font-size="22" font-weight="700" fill="#202124" text-anchor="middle">14</text><rect x="1126.2857142857142" y="236" width="202.85714285714286" height="100" rx="6" fill="#000000"/><rect x="1126.2857142857142" y="236" width="4" height="100" fill="#0e7490"/><text x="1136.2857142857142" y="264" font-family="Arial, Helvetica, sans-serif" font-size="24" font-weight="700" fill="#ffffff">6:00 PM</text><text x="1136.2857142857142" y="292" font-family="Arial, Helvetica, sans-serif" font-size="24" fill="#ffffff">D] Concert @</text><text x="1136.2857142857142" y="320" font-family="Arial, Helvetica, sans-serif" font-size="24" fill="#ffffff">Kings Beach</text><rect x="1337.142857142857" y="170" width="210.85714285714286" height="982" rx="6" fill="none" stroke="#e8eaed" stroke-width="1"/><text x="1442.5714285714284" y="196" font-family="Arial, Helvetica, sans-serif" font-size="16" fill="#5f6368" text-anchor="middle">Sat</text><text x="1442.5714285714284" y="218" font-family="Arial, Helvetica, sans-serif" font-size="22" font-weight="700" fill="#202124" text-anchor="middle">15</text><rect x="1341.142857142857" y="236" width="202.85714285714286" height="100" rx="6" fill="#000000"/><rect x="1341.142857142857" y="236" width="4" height="100" fill="#0e7490"/><text x="1351.142857142857" y="264" font-family="Arial, Helvetica, sans-serif" font-size="24" font-weight="700" fill="#ffffff">11:00 AM</text><text x="1351.142857142857" y="292" font-family="Arial, Helvetica, sans-serif" font-size="24" fill="#ffffff">D] Test</text><rect x="1341.142857142857" y="346" width="202.85714285714286" height="100" rx="6" fill="#000000"/><rect x="1341.142857142857" y="346" width="4" height="100" fill="#0e7490"/><text x="1351.142857142857" y="374" font-family="Arial, Helvetica, sans-serif" font-size="24" font-weight="700" fill="#ffffff">5:30 PM</text><text x="1351.142857142857" y="402" font-family="Arial, Helvetica, sans-serif" font-size="24" fill="#ffffff">D] Test 2</text></svg>